<svg width="32" height="35" viewBox="0 0 32 35" fill="none" xmlns="http://www.w3.org/2000/svg">
<path d="M19.0072 14.6097C18.0063 14.6097 17.2161 15.4702 17.2161 16.5413C17.2161 17.6125 18.0238 18.4729 19.0072 18.4729C20.0081 18.4729 20.7982 17.6125 20.7982 16.5413C20.7982 15.4702 19.9905 14.6097 19.0072 14.6097ZM12.5979 14.6097C11.597 14.6097 10.8068 15.4702 10.8068 16.5413C10.8068 17.6125 11.6145 18.4729 12.5979 18.4729C13.5988 18.4729 14.3889 17.6125 14.3889 16.5413C14.4065 15.4702 13.5988 14.6097 12.5979 14.6097Z" fill="white" fill-opacity="0.85"/>
<path d="M27.5413 0H4.01124C2.02699 0 0.411499 1.61549 0.411499 3.59974V27.1298C0.411499 29.114 2.02699 30.7295 4.01124 30.7295H23.924L22.9933 27.5161L25.241 29.5881L27.3657 31.5373L31.1586 34.8209V3.59974C31.141 1.61549 29.5255 0 27.5413 0ZM20.7632 22.7398C20.7632 22.7398 20.1311 21.9848 19.6043 21.3351C21.9046 20.6854 22.7826 19.263 22.7826 19.263C22.0626 19.7371 21.3778 20.0708 20.7632 20.299C19.8852 20.6678 19.0424 20.8961 18.2171 21.0541C16.5313 21.3702 14.9861 21.2824 13.6691 21.0366C12.6682 20.8434 11.8078 20.58 11.0878 20.2815C10.6839 20.1234 10.2449 19.9303 9.80595 19.6845C9.75327 19.6493 9.70059 19.6318 9.64791 19.5967C9.61279 19.5791 9.59523 19.5615 9.57768 19.5615C9.2616 19.3859 9.086 19.263 9.086 19.263C9.086 19.263 9.92887 20.6502 12.159 21.3175C11.6322 21.9848 10.9825 22.7574 10.9825 22.7574C7.10175 22.6345 5.62674 20.1059 5.62674 20.1059C5.62674 14.5043 8.15534 9.95636 8.15534 9.95636C10.6839 8.07747 13.0721 8.13015 13.0721 8.13015L13.2477 8.34087C10.0869 9.23642 8.64701 10.6236 8.64701 10.6236C8.64701 10.6236 9.03333 10.4129 9.68303 10.132C11.5619 9.30665 13.0545 9.09594 13.6691 9.0257C13.7745 9.00814 13.8622 8.99058 13.9676 8.99058C15.0388 8.8501 16.2504 8.81498 17.5147 8.95546C19.1828 9.14862 20.9739 9.64029 22.8001 10.6236C22.8001 10.6236 21.4129 9.30665 18.4278 8.41111L18.6736 8.13015C18.6736 8.13015 21.0793 8.07747 23.5903 9.95636C23.5903 9.95636 26.1189 14.5043 26.1189 20.1059C26.1189 20.0883 24.6439 22.6169 20.7632 22.7398Z" fill="white" fill-opacity="0.85"/>
</svg>
