<svg width="37" height="26" viewBox="0 0 37 26" fill="none" xmlns="http://www.w3.org/2000/svg">
<path fill-rule="evenodd" clip-rule="evenodd" d="M32.9768 0.795294C34.5616 1.22353 35.8112 2.47765 36.2379 4.06824C37.0303 6.97412 36.9998 13.0306 36.9998 13.0306C36.9998 13.0306 36.9998 19.0565 36.2379 21.9624C35.8112 23.5529 34.5616 24.8071 32.9768 25.2353C30.0814 26 18.4999 26 18.4999 26C18.4999 26 6.9489 26 4.02305 25.2047C2.43821 24.7765 1.18863 23.5224 0.761941 21.9318C0 19.0565 0 13 0 13C0 13 0 6.97412 0.761941 4.06824C1.18863 2.47765 2.46869 1.19294 4.02305 0.764706C6.91842 0 18.4999 0 18.4999 0C18.4999 0 30.0814 0 32.9768 0.795294ZM14.8121 7.43298L24.4431 13L14.8121 18.5671V7.43298Z" fill="white" fill-opacity="0.85"/>
</svg>
